<?xml version="1.0" encoding="utf-8"?><svg xml:space="preserve" viewBox="0 0 100 100" y="0" x="0" xmlns="http://www.w3.org/2000/svg" id="圖層_1" version="1.1" width="47px" height="47px" xmlns:xlink="http://www.w3.org/1999/xlink" style="width:100%;height:100%;background-size:initial;background-repeat-y:initial;background-repeat-x:initial;background-position-y:initial;background-position-x:initial;background-origin:initial;background-image:initial;background-color:rgb(241, 242, 243);background-clip:initial;background-attachment:initial;animation-play-state:paused" ><g class="ldl-scale" style="transform-origin:50% 50%;transform:rotate(0deg) scale(0.8, 0.8);animation-play-state:paused" ><path fill="#666" d="M51 31.3h-9.8V46h25.2l-6.9-10.2c-1.7-2.7-5-4.5-8.5-4.5z" style="fill:rgb(45, 101, 188);animation-play-state:paused" ></path>
<path fill="#666" d="M32.4 31.3c-3.6 0-6.7 2.2-7.6 5.4L21 46.1h17.1V31.3h-5.7z" style="fill:rgb(45, 101, 188);animation-play-state:paused" ></path>
<path fill="#abbd81" d="M88.1 55.1l-.8-3.2c-.1-.4-.2-.7-.3-1-1.1-3.1-4.1-5.2-7.4-5.2H15.5c-3.1 0-5.7 2.2-6.2 5.2 0 .1-.1.2-.1.3l-.6 3.9-.8 5.4c0 2.2 1.8 4.1 4.1 4.1h78.6l-2.4-9.5z" style="fill:rgb(145, 238, 204);animation-play-state:paused" ></path>
<path fill="#e15b64" d="M13.5 50.8h-4c-.3 0-.5.2-.5.4l-.5 3.4c0 .3.2.5.4.5h4.6c1.1 0 1.9-.8 1.9-1.9v-.5c0-1-.9-1.9-1.9-1.9z" style="fill:rgb(244, 255, 223);animation-play-state:paused" ></path>
<path fill="#e0e0e0" d="M87.6 51.3c-.1-.3-.3-.5-.6-.5h-3c-.8 0-1.4.6-1.4 1.3v1.6c0 .7.6 1.3 1.4 1.3h3.8c.4 0 .8-.4.6-.8l-.8-2.9z" style="fill:rgb(16, 203, 206);animation-play-state:paused" ></path>
<path fill="#849b87" d="M90.3 60.1H7.9s-.4 0-.4.4c0 2.4 1.7 4.1 4.2 4.1h78.5c1.2 0 2.2-1 2.2-2.2.1-1.3-.9-2.3-2.1-2.3z" style="fill:rgb(30, 45, 109);animation-play-state:paused" ></path>
<g style="animation-play-state:paused" ><circle fill="#fff" r="7.5" cy="62.4" cx="23.9" style="fill:rgb(30, 45, 109);animation-play-state:paused" ></circle>
<path fill="#333" d="M23.9 56.4c3.3 0 6 2.7 6 6s-2.7 6-6 6-6-2.7-6-6 2.7-6 6-6m0-3c-5 0-9 4-9 9s4 9 9 9 9-4 9-9c0-4.9-4.1-9-9-9z" style="fill:rgb(16, 203, 206);animation-play-state:paused" ></path></g>
<g style="animation-play-state:paused" ><circle fill="#e6e6e6" r="4" cy="62.4" cx="23.9" style="fill:rgb(45, 101, 188);animation-play-state:paused" ></circle></g>
<g style="animation-play-state:paused" ><circle fill="#fff" r="7.5" cy="62.4" cx="71.5" style="fill:rgb(30, 45, 109);animation-play-state:paused" ></circle>
<path fill="#333" d="M71.5 56.4c3.3 0 6 2.7 6 6s-2.7 6-6 6-6-2.7-6-6 2.7-6 6-6m0-3c-5 0-9 4-9 9s4 9 9 9 9-4 9-9c0-4.9-4-9-9-9z" style="fill:rgb(16, 203, 206);animation-play-state:paused" ></path></g>
<g style="animation-play-state:paused" ><circle fill="#e6e6e6" r="4" cy="62.4" cx="71.5" style="fill:rgb(45, 101, 188);animation-play-state:paused" ></circle></g>
<path fill="#abbd81" d="M63.3 33.9c-2.1-3.3-5.9-5.4-10-5.4H29.1c-4.2 0-7.9 2.6-9 6.4L15.6 46h6l3.5-8.7c.8-3 3.7-5.1 7.1-5.1h5.4v13.7h4.5V32.3h9.2c3.3 0 6.3 1.6 7.9 4.2l6.4 9.5h6l-8.3-12.1z" style="fill:rgb(145, 238, 204);animation-play-state:paused" ></path>
<path fill="#849b87" d="M58.1 57.1H38.2c-1 0-1.8-.8-1.8-1.8s.8-1.8 1.8-1.8h19.9c1 0 1.8.8 1.8 1.8 0 .9-.8 1.8-1.8 1.8z" style="fill:rgb(30, 45, 109);animation-play-state:paused" ></path>
<metadata xmlns:d="https://loading.io/stock/" style="animation-play-state:paused" ><d:name style="animation-play-state:paused" >car</d:name>


<d:tags style="animation-play-state:paused" >wagon,rv,hybrid,drive,auto,wheel,vehicle,car,transportation</d:tags>


<d:license style="animation-play-state:paused" >by</d:license>


<d:slug style="animation-play-state:paused" >8b47in</d:slug></metadata></g><!-- generated by https://loading.io/ --></svg>